# xmcd
#
# Track frame offsets:
#	150
#	11205
#	21473
#	32768
#	43436
#	53589
#	64466
#	76646
#	89603
#	101766
#	112824
#	125001
#	137317
#	149744
#	161816
#	173752
#
# Disc length: 2469 seconds
#
# Revision: 0
# Processed by: cddbd v1.5.2PL0 Copyright (c) Steve Scherf et al.
# Submitted via: EasyCDDAExtractor 11.1.0.1
#
DISCID=e309a310
DTITLE=Bjarne Andersen - Bjarne goes country - Vol 2
DYEAR=2007
DGENRE=country
TTITLE0=From here to there to you
TTITLE1=Release me
TTITLE2=Send me the pillow
TTITLE3=Adios amigos
TTITLE4=Blue boy
TTITLE5=Please help me I'm falling
TTITLE6=Am I loosing you
TTITLE7=Distant drums
TTITLE8=Missing you
TTITLE9=You're the reason I don't sleep
TTITLE10=Welcome to my world
TTITLE11=Since I met you baby
TTITLE12=Your cheating heart
TTITLE13=I fall to peaces
TTITLE14=Happy journey
TTITLE15=One step ahead of my past
EXTD=
EXTT0=
EXTT1=
EXTT2=
EXTT3=
EXTT4=
EXTT5=
EXTT6=
EXTT7=
EXTT8=
EXTT9=
EXTT10=
EXTT11=
EXTT12=
EXTT13=
EXTT14=
EXTT15=
PLAYORDER=
